<svg xmlns="http://www.w3.org/2000/svg" width="120" height="97.49" viewBox="0 0 120 97.49">
  <defs>
    <style>
      .cls-1{fill:#1e9cd4}.cls-1,.cls-2,.cls-3{fill-rule:evenodd}.cls-2{fill:#1d9dd3}.cls-3{fill:#32aee5}
    </style>
  </defs>
  <g>
    <path d="M98.91 0c-2.12.81-13.2 5.61-16 9.2l1 18.75c2.36-5.36 7.43-8.69 9-14.39a50.54 50.54 0 016-13.56zM81.34 6.69s-5.19 5.44-6.44 7a47.5 47.5 0 00-3.1 4.6c.92 6.53 5.77 13.06 5.11 21.68L83 28.53c.16-3.97-3.6-15.14-1.66-21.84zM52.81 43.18a31 31 0 00-3.33-4.45c-1.92-2.09-3.8-4.09-3.8-4.09s.83 6-.09 8.64-1.42 5.64-1 7.31.46 2.09.46 2.09 6.26 2 6.47 1.63a45.66 45.66 0 001.17-8.44 8.27 8.27 0 01.12-2.69zM44.51 35.76s-3-2.38-4.64-3.67-4-2.93-4-2.93a20.48 20.48 0 011 7.15c-.12 4.13-.08 8.48 1 10.06s5.93 6 5.93 6-1.46-4.55-.46-7.77a45.16 45.16 0 001.17-8.84zM36.28 45.08s-6.77-5.93-8-8.77-3.63-6.52-5.1-7.77A12.07 12.07 0 0121 26.07s7 1.42 9.52 2.76 4.39.63 4.47 6.89 1.29 9.28 1.29 9.36zM27.38 37.35S22 29.12 20.7 28.71s-6.35.71-9.57 2.29a40 40 0 00-5.39 3.18 19.11 19.11 0 0111.16-.55 85.36 85.36 0 0110.48 3.72zM90.79 68.41a11.94 11.94 0 001.34-1.94c.84-1.42.8-3.3 2.08-4.46a10.8 10.8 0 015.85-2.62c2.62-.16 5.61-.06 7.69-1.94a4.71 4.71 0 001.53-4c0-1.49-1.85-1.95-2.23-3.31-.57-4.36-2.43-5.62-5.72-6.65a43.24 43.24 0 00-2.07-4.41c-1-.15-1.2 1.14-1.65 1.73-.1 0-.32.06-.43.08a9.81 9.81 0 00-2-3.6 11.71 11.71 0 00-2.09 3.38 62.74 62.74 0 01-2.3 27.74z" class="cls-1"/>
    <path d="M84.23 82.69c2.19 2 4.52 3.77 6.69 5.73-.08 1.1-.31 2.37.5 3.28 1.4 1.75 4.35 1.17 5.45-.62a5.33 5.33 0 00-.7-4.55 25.65 25.65 0 01-2-2c-2.19-2.73-5-5.16-6.32-8.46-.75 1.61-1.58 3.21-2.48 4.78-.37.63-.77 1.24-1.14 1.84zM79.1 76.85c0 1.31 2.8 3.67 3.7 4.53a72.21 72.21 0 008.36-37.48c-.72.52-1.52.94-2.27 1.42a63.18 63.18 0 01-9.79 31.53z" class="cls-2"/>
    <path d="M67.84 90.05c.06.84.12 1.67.17 2.51-.18 1.44-.26 3.28 1.2 4.11 1.66.75 3.56.64 5.35.8.92.07 2.23 0 2.52-1.06A4.39 4.39 0 0075.45 92a5.74 5.74 0 00-2.76.09c1-3.31 1.64-6.71 2.69-10a62.25 62.25 0 01-7.54 7.96zM62.41 77.47c1.5 0 3 .11 4.49.13.2 3.15.46 6.3.71 9.45a72.5 72.5 0 0020.12-41A55.87 55.87 0 0182 50.71a63 63 0 01-19.59 26.76z" class="cls-1"/>
    <path d="M37.05 89.89a22.33 22.33 0 002.56 5.57c1.45 2.4 4.84 1.94 7 1 1.69-.63 1.45-2.86.59-4.1s-2.46-.79-3.67-1.25c-.34-.91-.66-1.83-1-2.76-1.05.35-2.11.68-3.19 1-.71.15-1.5.36-2.29.54zM24.77 91.58c.59 1.72 2.51 2.56 4.23 2.69a2.67 2.67 0 002.68-2.51 2.11 2.11 0 000-.83 65 65 0 01-6.91.65z" class="cls-3"/>
    <path d="M30.27 74.86c-1.63 1.25-4.06 1.24-5.25 3.08-1.39 1.88-.42 4.25-.42 6.36.22 2.12-.3 4.26 0 6.37 2.16-.29 4.32-.66 6.48-1.15-.24-.37-.5-.73-.73-1.1-.15-2.08-.11-4.19-.35-6.27 4.37-.93 8.8-2.45 12.29-5.34l1-.1-.89.4c-2 3.15-4.16 6.14-6.1 9.28q.13.85.33 1.68A73.33 73.33 0 0080 52.29a18.39 18.39 0 01-6.57 1.84 62.77 62.77 0 01-43.16 20.73z" class="cls-1"/>
    <path fill="#1384b3" fill-rule="evenodd" d="M6.3 64.23A25.48 25.48 0 000 71.87c16.92-17.15 22.81-4.7 35.44-5.2l-.12.32a24 24 0 01-2.45 5.35A72.4 72.4 0 0071 54.53c-1.94.3-3.89.57-5.84.78-1.5.23-3 .39-4.52.49-22.22 12.07-40.89-3.22-54.34 8.43zm63.49-46.91a14.85 14.85 0 00.5 4.94c.76 3.26 3.69 7.61 4.44 9.45s2.09 7.28-.08 10.63-8.12 11.3-8.12 11.3c2.51-8.58.92-12.4-2.26-20.25-1.59-3.93-.59-5.78.75-8.37s4.77-7.7 4.77-7.7zm-18.6 37.91c5.48.12 4.21-10.48 4.88-14.81.93-5.94 5.27-11.72 5.27-11.72-.66 8.47 7.75 14.38 4.77 22.76l-.2.4c-13.6 8-24.69 8.4-39.46 5.88C16.15 56 6.86 61.59 6.86 61.59a40.73 40.73 0 016-4.77 36.3 36.3 0 0118.25-4.56c8.89.05 20.08 2.97 20.08 2.97z"/>
    <path d="M88.7 42.17a20.44 20.44 0 01-11.32-1l-8.9 12.25C77.9 52.55 82 49.29 88.7 42.17zm-47.37 9.76l-3.84-4.47c-3.26 1.24-7.21.85-10.53 0l3.3 3.43c3.74 0 7.36 1 11.07 1zm-4.63-5.76s-5.1-4.6-7-6.27-7.23-3.76-7.23-3.76c.66 1.28 5 10.72 5.89 10.65l8.36-.62zm62.46-33.62a107.61 107.61 0 01-2.93 10.71c-1.17 2.93-1.08 4.19-3.34 4.61a74.35 74.35 0 01-7.87.5 50 50 0 015-7.53c3-3.69 9.12-8.29 9.12-8.29zm-2.59 15.82s-6.86 10.54-8.95 11.8-9.54-.42-9.54-.42l5.69-9.29s2.76.08 6.44 0a12 12 0 006.36-2.09z" class="cls-3"/>
    <path d="M120 5.94a46.51 46.51 0 00-12-2.84 55 55 0 00-8.84-.1l-5.77 12.73s5-5.94 11-7.7S120 5.94 120 5.94z" class="cls-1"/>
  </g>
</svg>
